<?xml version="1.0" encoding="UTF-8"?>
<svg xmlns="http://www.w3.org/2000/svg" xmlns:xlink="http://www.w3.org/1999/xlink" width="20px" height="20px" viewBox="0 0 20 20" version="1.1">
<g id="surface1">
<path style=" stroke:none;fill-rule:nonzero;fill:rgb(100%,100%,100%);fill-opacity:1;" d="M 18.152344 4.226562 C 18.152344 4.222656 18.148438 4.214844 18.148438 4.207031 C 18.125 4.171875 18.09375 4.140625 18.066406 4.105469 C 17.878906 3.851562 17.683594 3.609375 17.472656 3.371094 C 17.417969 3.308594 17.359375 3.246094 17.300781 3.179688 C 17.085938 2.953125 16.859375 2.730469 16.625 2.523438 C 16.582031 2.484375 16.542969 2.445312 16.496094 2.40625 C 15.917969 1.910156 15.28125 1.480469 14.601562 1.125 C 14.574219 1.113281 14.546875 1.101562 14.519531 1.085938 C 14.214844 0.933594 13.90625 0.792969 13.589844 0.671875 C 13.515625 0.648438 13.453125 0.621094 13.382812 0.601562 C 13.101562 0.5 12.816406 0.410156 12.527344 0.335938 C 12.441406 0.3125 12.355469 0.289062 12.269531 0.269531 C 11.984375 0.203125 11.695312 0.152344 11.40625 0.109375 C 11.316406 0.0976562 11.230469 0.078125 11.140625 0.0703125 C 10.386719 -0.0234375 9.625 -0.0234375 8.875 0.0703125 C 8.785156 0.078125 8.695312 0.0976562 8.609375 0.109375 C 8.316406 0.152344 8.027344 0.203125 7.746094 0.269531 C 7.65625 0.289062 7.570312 0.3125 7.484375 0.335938 C 7.195312 0.410156 6.90625 0.5 6.628906 0.601562 C 6.558594 0.625 6.492188 0.648438 6.425781 0.671875 C 6.109375 0.792969 5.796875 0.933594 5.496094 1.085938 C 5.46875 1.101562 5.4375 1.113281 5.410156 1.125 C 4.730469 1.480469 4.09375 1.910156 3.507812 2.40625 C 3.464844 2.445312 3.425781 2.484375 3.382812 2.523438 C 3.144531 2.734375 2.917969 2.953125 2.703125 3.179688 C 2.644531 3.246094 2.589844 3.308594 2.53125 3.371094 C 2.324219 3.605469 2.125 3.851562 1.9375 4.105469 C 1.914062 4.140625 1.882812 4.171875 1.859375 4.207031 C 1.855469 4.214844 1.851562 4.222656 1.847656 4.226562 C -0.617188 7.679688 -0.617188 12.320312 1.847656 15.773438 C 1.851562 15.777344 1.855469 15.785156 1.859375 15.792969 C 1.882812 15.828125 1.914062 15.859375 1.9375 15.894531 C 2.125 16.148438 2.324219 16.390625 2.53125 16.628906 C 2.589844 16.691406 2.644531 16.753906 2.703125 16.816406 C 2.921875 17.046875 3.144531 17.269531 3.382812 17.476562 C 3.425781 17.515625 3.464844 17.554688 3.507812 17.59375 C 4.089844 18.089844 4.726562 18.519531 5.40625 18.875 C 5.433594 18.886719 5.460938 18.898438 5.488281 18.914062 C 5.789062 19.066406 6.101562 19.207031 6.417969 19.328125 C 6.488281 19.351562 6.554688 19.378906 6.621094 19.398438 C 6.902344 19.5 7.1875 19.589844 7.480469 19.664062 C 7.566406 19.6875 7.652344 19.710938 7.738281 19.730469 C 8.023438 19.796875 8.308594 19.847656 8.601562 19.890625 C 8.691406 19.902344 8.777344 19.921875 8.867188 19.929688 C 9.621094 20.023438 10.378906 20.023438 11.132812 19.929688 C 11.222656 19.921875 11.308594 19.902344 11.398438 19.890625 C 11.691406 19.847656 11.980469 19.796875 12.261719 19.730469 C 12.347656 19.710938 12.433594 19.6875 12.519531 19.664062 C 12.8125 19.589844 13.097656 19.5 13.378906 19.398438 C 13.449219 19.375 13.515625 19.351562 13.582031 19.328125 C 13.898438 19.207031 14.207031 19.066406 14.511719 18.914062 C 14.539062 18.898438 14.566406 18.886719 14.59375 18.875 C 15.273438 18.519531 15.910156 18.089844 16.492188 17.59375 C 16.535156 17.554688 16.574219 17.515625 16.617188 17.476562 C 16.855469 17.265625 17.082031 17.046875 17.296875 16.816406 C 17.355469 16.753906 17.410156 16.691406 17.46875 16.628906 C 17.675781 16.390625 17.875 16.148438 18.0625 15.894531 C 18.085938 15.859375 18.117188 15.828125 18.140625 15.792969 C 18.144531 15.785156 18.148438 15.777344 18.152344 15.773438 C 20.617188 12.320312 20.617188 7.679688 18.152344 4.226562 Z M 17.335938 5.578125 C 18.019531 6.703125 18.429688 7.972656 18.542969 9.285156 L 14.261719 9.285156 C 14.207031 8.433594 14.074219 7.589844 13.859375 6.765625 C 15.070312 6.539062 16.238281 6.140625 17.335938 5.578125 Z M 11.820312 1.625 C 11.859375 1.632812 11.898438 1.644531 11.941406 1.65625 C 12.195312 1.714844 12.449219 1.785156 12.695312 1.867188 C 12.734375 1.882812 12.773438 1.898438 12.808594 1.910156 C 13.054688 1.996094 13.296875 2.089844 13.535156 2.195312 C 13.574219 2.214844 13.617188 2.238281 13.660156 2.257812 C 13.886719 2.363281 14.109375 2.480469 14.324219 2.605469 L 14.46875 2.695312 C 14.671875 2.820312 14.871094 2.953125 15.066406 3.097656 C 15.117188 3.132812 15.167969 3.167969 15.214844 3.207031 C 15.40625 3.351562 15.589844 3.503906 15.765625 3.667969 C 15.808594 3.710938 15.855469 3.75 15.902344 3.792969 C 16.085938 3.96875 16.257812 4.152344 16.425781 4.339844 C 16.449219 4.367188 16.472656 4.386719 16.492188 4.410156 C 15.527344 4.875 14.5 5.203125 13.445312 5.390625 C 12.957031 4.046875 12.3125 2.765625 11.523438 1.574219 C 11.621094 1.59375 11.722656 1.601562 11.820312 1.625 Z M 7.171875 9.285156 C 7.226562 8.511719 7.359375 7.746094 7.5625 7 C 8.375 7.09375 9.1875 7.144531 10.003906 7.140625 C 10.820312 7.140625 11.636719 7.09375 12.445312 6.996094 C 12.648438 7.746094 12.78125 8.511719 12.835938 9.285156 Z M 12.835938 10.714844 C 12.78125 11.488281 12.648438 12.253906 12.441406 13 C 11.632812 12.90625 10.820312 12.855469 10.003906 12.859375 C 9.1875 12.855469 8.371094 12.90625 7.5625 13 C 7.359375 12.253906 7.226562 11.488281 7.171875 10.714844 Z M 10.003906 1.890625 C 10.816406 3.042969 11.484375 4.292969 11.996094 5.605469 C 11.332031 5.675781 10.667969 5.714844 10.003906 5.714844 C 9.339844 5.710938 8.675781 5.675781 8.015625 5.605469 C 8.523438 4.292969 9.191406 3.046875 10.003906 1.890625 Z M 3.582031 4.339844 C 3.75 4.148438 3.921875 3.964844 4.105469 3.792969 C 4.152344 3.75 4.199219 3.707031 4.242188 3.667969 C 4.421875 3.507812 4.601562 3.355469 4.792969 3.207031 C 4.839844 3.171875 4.890625 3.136719 4.941406 3.097656 C 5.136719 2.953125 5.335938 2.820312 5.539062 2.691406 L 5.683594 2.605469 C 5.902344 2.480469 6.121094 2.363281 6.351562 2.253906 C 6.390625 2.234375 6.433594 2.214844 6.472656 2.195312 C 6.710938 2.089844 6.953125 1.992188 7.199219 1.910156 C 7.234375 1.894531 7.269531 1.882812 7.3125 1.867188 C 7.558594 1.785156 7.8125 1.71875 8.066406 1.652344 C 8.109375 1.644531 8.148438 1.632812 8.1875 1.625 C 8.285156 1.601562 8.386719 1.59375 8.484375 1.574219 C 7.695312 2.765625 7.050781 4.046875 6.5625 5.390625 C 5.507812 5.203125 4.480469 4.875 3.515625 4.414062 C 3.535156 4.386719 3.558594 4.363281 3.582031 4.339844 Z M 2.671875 5.578125 C 3.765625 6.140625 4.9375 6.539062 6.144531 6.765625 C 5.933594 7.589844 5.796875 8.433594 5.746094 9.285156 L 1.464844 9.285156 C 1.574219 7.972656 1.988281 6.703125 2.671875 5.578125 Z M 2.671875 14.421875 C 1.988281 13.296875 1.574219 12.027344 1.464844 10.714844 L 5.746094 10.714844 C 5.796875 11.566406 5.933594 12.410156 6.144531 13.234375 C 4.9375 13.460938 3.765625 13.859375 2.671875 14.421875 Z M 8.1875 18.375 C 8.144531 18.367188 8.105469 18.355469 8.066406 18.34375 C 7.8125 18.285156 7.558594 18.214844 7.308594 18.132812 C 7.273438 18.117188 7.234375 18.101562 7.199219 18.089844 C 6.953125 18.003906 6.710938 17.910156 6.472656 17.804688 C 6.429688 17.785156 6.390625 17.761719 6.347656 17.742188 C 6.121094 17.636719 5.898438 17.519531 5.683594 17.394531 L 5.539062 17.304688 C 5.335938 17.179688 5.132812 17.046875 4.941406 16.902344 C 4.890625 16.867188 4.839844 16.832031 4.789062 16.792969 C 4.601562 16.648438 4.417969 16.496094 4.242188 16.332031 C 4.199219 16.289062 4.152344 16.25 4.105469 16.207031 C 3.921875 16.03125 3.75 15.847656 3.578125 15.660156 C 3.558594 15.632812 3.535156 15.613281 3.515625 15.589844 C 4.480469 15.125 5.507812 14.796875 6.5625 14.609375 C 7.050781 15.953125 7.695312 17.234375 8.484375 18.425781 C 8.386719 18.40625 8.285156 18.398438 8.1875 18.375 Z M 10.003906 18.109375 C 9.191406 16.957031 8.523438 15.707031 8.011719 14.394531 C 9.335938 14.25 10.671875 14.25 11.992188 14.394531 C 11.484375 15.707031 10.816406 16.953125 10.003906 18.109375 Z M 16.425781 15.660156 C 16.257812 15.851562 16.082031 16.035156 15.902344 16.207031 C 15.855469 16.25 15.808594 16.292969 15.761719 16.332031 C 15.585938 16.492188 15.40625 16.648438 15.214844 16.792969 C 15.167969 16.828125 15.117188 16.867188 15.066406 16.902344 C 14.871094 17.046875 14.671875 17.179688 14.464844 17.308594 L 14.324219 17.394531 C 14.105469 17.519531 13.886719 17.636719 13.65625 17.746094 C 13.617188 17.765625 13.574219 17.785156 13.535156 17.804688 C 13.296875 17.910156 13.054688 18.007812 12.808594 18.089844 C 12.773438 18.105469 12.738281 18.117188 12.695312 18.132812 C 12.449219 18.214844 12.195312 18.28125 11.9375 18.347656 C 11.898438 18.355469 11.859375 18.367188 11.820312 18.375 C 11.722656 18.398438 11.621094 18.40625 11.519531 18.425781 C 12.308594 17.234375 12.957031 15.953125 13.445312 14.609375 C 14.5 14.796875 15.523438 15.128906 16.492188 15.589844 C 16.472656 15.613281 16.449219 15.636719 16.425781 15.660156 Z M 17.335938 14.421875 C 16.242188 13.863281 15.070312 13.460938 13.863281 13.234375 C 14.074219 12.410156 14.210938 11.566406 14.261719 10.714844 L 18.542969 10.714844 C 18.429688 12.027344 18.019531 13.296875 17.335938 14.421875 Z M 17.335938 14.421875 "/>
</g>
</svg>
