<?xml version="1.0" encoding="UTF-8"?>
<svg xmlns="http://www.w3.org/2000/svg" xmlns:xlink="http://www.w3.org/1999/xlink" width="20px" height="20px" viewBox="0 0 20 20" version="1.1">
<g id="surface1">
<path style=" stroke:none;fill-rule:nonzero;fill:rgb(100%,100%,100%);fill-opacity:1;" d="M 19.457031 14.679688 L 16.664062 11.886719 C 15.667969 10.890625 13.972656 11.289062 13.574219 12.585938 C 13.277344 13.480469 12.277344 13.980469 11.382812 13.78125 C 9.386719 13.28125 6.695312 10.691406 6.199219 8.597656 C 5.898438 7.699219 6.496094 6.703125 7.394531 6.40625 C 8.691406 6.003906 9.089844 4.3125 8.09375 3.3125 L 5.300781 0.523438 C 4.503906 -0.175781 3.308594 -0.175781 2.609375 0.523438 L 0.714844 2.417969 C -1.179688 4.410156 0.914062 9.695312 5.601562 14.378906 C 10.285156 19.0625 15.566406 21.257812 17.5625 19.261719 L 19.457031 17.371094 C 20.152344 16.570312 20.152344 15.375 19.457031 14.679688 Z M 19.457031 14.679688 "/>
</g>
</svg>
